
<svg width="480" height="120" viewBox="0 0 837 210" fill="none" xmlns="http://www.w3.org/2000/svg">
    <path fill-rule="evenodd" clip-rule="evenodd" d="M320.904 61.071L313.905 55.8217L316.944 52.6039C316.743 47.4332 319.12 41.2779 323.648 36.174C328.613 30.5777 335.143 27.3995 340.638 27.5162L343.652 24.3254L348.901 31.3246L348.807 31.4249C352.877 36.8273 351.258 46.5662 344.261 54.4558C336.843 62.8124 326.648 65.4185 320.93 61.0443L320.904 61.071Z" fill="url(#paint0_linear_728_2218)"/>
    <path d="M339.474 49.5499C347.427 40.5862 348.984 28.9814 342.952 23.63C336.921 18.2785 325.584 21.2068 317.631 30.1706C309.678 39.1343 308.121 50.7391 314.153 56.0906C320.185 61.442 331.521 58.5137 339.474 49.5499Z" fill="url(#paint1_linear_728_2218)"/>
    <path d="M339.584 49.6488C347.488 40.74 348.957 29.1361 342.864 23.7308C336.772 18.3254 325.426 21.1656 317.522 30.0744C309.617 38.9832 308.149 50.5871 314.241 55.9924C320.334 61.3978 331.68 58.5576 339.584 49.6488Z" fill="#0052FE"/>
    <path d="M83.052 105.136L160.547 22.1046H119.336L37.0325 108.558V22.1046H0V194.018H37.0325V153.486L58.667 131.033L110.202 194.018H153.688L88.2944 111.736L83.052 105.129V105.136Z" fill="#0052FE"/>
    <path d="M279.974 98.5076C268.453 80.2328 247.316 68.9292 221.545 68.9292C194.003 68.9292 171.641 81.8496 160.736 102.322C156.026 111.092 153.457 121.276 153.457 132.398C153.457 169.507 182.196 195.866 221.545 195.866C260.894 195.866 289.416 169.507 289.416 132.398C289.416 119.61 286.021 108.09 279.974 98.5076ZM221.545 166.533C203.599 166.533 189.79 153.703 189.79 132.398C189.79 114.074 199.98 102.021 214.252 99.0116C216.582 98.5007 219.025 98.2487 221.545 98.2487C223.316 98.2487 225.016 98.3607 226.689 98.6336C242.01 100.845 253.062 113.171 253.062 132.398C253.062 153.703 239.498 166.533 221.552 166.533H221.545Z" fill="#0052FE"/>
    <path d="M349.224 70.7618H313.339V194.024H349.224V70.7618Z" fill="#0052FE"/>
    <path d="M457.823 68.9292C441.025 68.9292 426.529 74.6685 416.871 85.1952V70.763H382.596V194.025H418.473V133.077C418.473 124.118 420.405 117.055 423.842 111.813C429.049 103.729 437.728 99.8725 448.164 99.8725C462.267 99.8725 471.1 107.103 472.892 122.676C473.123 124.622 473.235 126.735 473.235 128.961V194.018H493L509.14 171.607V123.474C509.14 85.8811 487.044 68.9292 457.823 68.9292Z" fill="#0052FE"/>
    <path d="M695.675 21.5175L519.625 194.026H574.421L590.505 171.16L681.6 41.5491L695.675 21.5175Z" fill="url(#paint2_linear_728_2218)"/>
    <path d="M643.783 21.5175L638.156 29.3425L549.805 152.08L519.625 194.026L695.675 21.5175H643.783Z" fill="url(#paint3_linear_728_2218)"/>
    <path d="M678.246 163.901L675.971 160.681C674.075 157.993 670.988 156.398 667.712 156.398H626.298C624.766 156.398 623.576 157.308 623.009 158.518L699.559 194.025L678.246 163.901Z" fill="#F69300"/>
    <path d="M623.009 158.52C622.505 159.598 622.498 160.914 623.247 162.061L631.751 175.003H631.772L644.28 194.027H699.566L623.016 158.52H623.009Z" fill="url(#paint4_linear_728_2218)"/>
    <path d="M598.12 53.4475L585.011 34.1998L576.374 21.5243H522.284L597.273 58.4169C598.743 57.318 599.296 55.1763 598.127 53.4475H598.12Z" fill="url(#paint5_linear_728_2218)"/>
    <path d="M522.277 21.5177L545.354 54.7847C545.452 54.9177 545.543 55.0297 545.641 55.1627C547.551 57.6614 550.512 59.1382 553.676 59.1382H595.111C595.958 59.1382 596.678 58.8443 597.273 58.4033L522.284 21.5107L522.277 21.5177Z" fill="#F69300"/>
    <path d="M763.63 59.1309V27.0482H779.019C780.642 27.0482 782.207 27.4394 783.714 28.2219C785.25 28.9754 786.511 30.1057 787.496 31.6128C788.511 33.0908 789.018 34.9167 789.018 37.0903C789.018 39.2639 788.496 41.1478 787.453 42.7417C786.438 44.3068 785.134 45.5095 783.54 46.35C781.975 47.1904 780.352 47.6107 778.671 47.6107H766.76V43.2199H777.193C778.671 43.2199 779.99 42.6983 781.149 41.6549C782.337 40.5826 782.932 39.0611 782.932 37.0903C782.932 35.0616 782.337 33.6125 781.149 32.7431C779.99 31.8736 778.715 31.4389 777.324 31.4389H769.238V59.1309H763.63ZM782.323 44.2198L790.322 59.1309H784.062L776.28 44.2198H782.323ZM775.411 78.2588C770.6 78.2588 766.093 77.3604 761.891 75.5635C757.689 73.7666 753.993 71.2742 750.805 68.0862C747.617 64.8982 745.125 61.2031 743.328 57.0007C741.531 52.7984 740.633 48.2917 740.633 43.4808C740.633 38.6698 741.531 34.1632 743.328 29.9608C745.125 25.7585 747.617 22.0633 750.805 18.8753C753.993 15.6873 757.689 13.1949 761.891 11.3981C766.093 9.60119 770.6 8.70276 775.411 8.70276C780.222 8.70276 784.728 9.60119 788.931 11.3981C793.133 13.1949 796.828 15.6873 800.016 18.8753C803.204 22.0633 805.697 25.7585 807.494 29.9608C809.29 34.1632 810.189 38.6698 810.189 43.4808C810.189 48.2917 809.29 52.7984 807.494 57.0007C805.697 61.2031 803.204 64.8982 800.016 68.0862C796.828 71.2742 793.133 73.7666 788.931 75.5635C784.728 77.3604 780.222 78.2588 775.411 78.2588ZM775.411 71.7814C780.628 71.7814 785.366 70.5062 789.626 67.9558C793.916 65.4054 797.335 62.0001 799.886 57.7398C802.436 53.4505 803.711 48.6975 803.711 43.4808C803.711 38.2641 802.436 33.5256 799.886 29.2653C797.335 24.976 793.916 21.5561 789.626 19.0057C785.366 16.4554 780.628 15.1802 775.411 15.1802C770.194 15.1802 765.441 16.4554 761.152 19.0057C756.892 21.5561 753.486 24.976 750.936 29.2653C748.385 33.5256 747.11 38.2641 747.11 43.4808C747.11 48.6975 748.385 53.4505 750.936 57.7398C753.486 62.0001 756.892 65.4054 761.152 67.9558C765.441 70.5062 770.194 71.7814 775.411 71.7814Z" fill="#334155"/>
    <defs>
    <linearGradient id="paint0_linear_728_2218" x1="349.776" y1="33.0746" x2="323.529" y2="63.6962" gradientUnits="userSpaceOnUse">
    <stop stop-color="#3372F5"/>
    <stop offset="0.249995" stop-color="#3372F5"/>
    <stop offset="0.505208" stop-color="#80DBFB"/>
    <stop offset="0.838547" stop-color="#3372F5"/>
    <stop offset="1" stop-color="#3372F5"/>
    </linearGradient>
    <linearGradient id="paint1_linear_728_2218" x1="388.637" y1="32.9732" x2="381.615" y2="40.8773" gradientUnits="userSpaceOnUse">
    <stop stop-color="#0080D4"/>
    <stop offset="0.47" stop-color="white"/>
    <stop offset="0.6" stop-color="#F1F8FC"/>
    <stop offset="1" stop-color="#007DCC"/>
    </linearGradient>
    <linearGradient id="paint2_linear_728_2218" x1="656.123" y1="67.8099" x2="587.916" y2="146.718" gradientUnits="userSpaceOnUse">
    <stop stop-color="#FFAC00"/>
    <stop offset="1" stop-color="#FE7801"/>
    </linearGradient>
    <linearGradient id="paint3_linear_728_2218" x1="519.625" y1="107.775" x2="695.675" y2="107.775" gradientUnits="userSpaceOnUse">
    <stop stop-color="#FFCE00"/>
    <stop offset="1" stop-color="#FFB003"/>
    </linearGradient>
    <linearGradient id="paint4_linear_728_2218" x1="622.652" y1="176.277" x2="699.559" y2="176.277" gradientUnits="userSpaceOnUse">
    <stop stop-color="#FE8B01"/>
    <stop offset="1" stop-color="#FE7801"/>
    </linearGradient>
    <linearGradient id="paint5_linear_728_2218" x1="522.277" y1="39.9671" x2="598.757" y2="39.9671" gradientUnits="userSpaceOnUse">
    <stop stop-color="#FFCE00"/>
    <stop offset="1" stop-color="#FFC101"/>
    </linearGradient>
    </defs>
    </svg>
    